<svg width="32" height="32" viewBox="0 0 32 32" fill="none" xmlns="http://www.w3.org/2000/svg">
<g clip-path="url(#clip0_625_930)">
<path d="M0 0H32V32H0V0Z" fill="#B2DFDB"/>
<path d="M3 30V15H6.14612V21.189H12.5328V15H15.6717V30H12.5328V23.8037H6.14612V30H3Z" fill="black"/>
<path d="M18.2656 30V15H24.1364C25.2602 15 26.2193 15.2026 27.0137 15.6079C27.813 16.0083 28.4209 16.5771 28.8375 17.3145C29.2589 18.0469 29.4696 18.9087 29.4696 19.8999C29.4696 20.896 29.2565 21.7529 28.8302 22.4707C28.4039 23.1836 27.7863 23.7305 26.9774 24.1113C26.1733 24.4922 25.1997 24.6826 24.0565 24.6826H20.1257V22.1338H23.5479C24.1485 22.1338 24.6475 22.0508 25.0447 21.8848C25.4419 21.7188 25.7374 21.4697 25.9311 21.1377C26.1297 20.8057 26.229 20.3931 26.229 19.8999C26.229 19.4019 26.1297 18.9819 25.9311 18.6401C25.7374 18.2983 25.4395 18.0396 25.0374 17.8638C24.6402 17.6831 24.1389 17.5928 23.5334 17.5928H21.4117V30H18.2656ZM26.3017 23.1738L30 30H26.5269L22.9085 23.1738H26.3017Z" fill="black"/>
</g>
<defs>
<clipPath id="clip0_625_930">
<rect width="32" height="32" fill="white"/>
</clipPath>
</defs>
</svg>
