<svg width="32" height="32" viewBox="0 0 32 32" fill="none" xmlns="http://www.w3.org/2000/svg">
<g clip-path="url(#clip0_581_823)">
<path d="M32 0H0V32H32V0Z" fill="#1976D2"/>
<path d="M19.1023 14.2222H7.31293V17.1236H11.5414V30.2222H14.8916V17.1236H19.1023V14.2222Z" fill="white"/>
<path d="M29.5058 17.8527C29.5058 17.8527 27.9173 16.7931 26.1218 16.7931C24.3262 16.7931 23.68 17.6464 23.68 18.5584C23.68 20.9122 30.2409 20.6767 30.2409 25.4135C30.2409 32.7104 20.2373 29.474 20.2373 29.474V25.9735C20.2373 25.9735 22.1502 27.4153 24.4444 27.4153C26.7386 27.4153 26.6515 25.9149 26.6515 25.7087C26.6515 23.5318 20.1493 23.5318 20.1493 18.706C20.1493 12.1451 29.6231 14.7335 29.6231 14.7335L29.5058 17.8527Z" fill="white"/>
</g>
<defs>
<clipPath id="clip0_581_823">
<rect width="32" height="32" fill="white"/>
</clipPath>
</defs>
</svg>
